<!-- Generated by IcoMoon.io -->
<svg version="1.1" xmlns="http://www.w3.org/2000/svg" width="154" height="32" viewBox="0 0 154 32">
<title>Logo</title>
<path d="M15.317 1.015c-7.897 0.266-14.24 6.773-14.24 14.734 0 3.867 1.52 7.488 4.077 10.176v-10.176c0-5.713 4.515-10.392 10.162-10.655v-4.079zM16.36 26.418v4.080c7.897-0.266 14.239-6.774 14.239-14.736 0-3.866-1.519-7.484-4.075-10.172v10.172c0 5.713-4.515 10.392-10.164 10.656zM15.857 31.514h-0.503v-6.090h0.503c5.327 0 9.661-4.334 9.661-9.661v-11.134c-1.187-1.033-2.549-1.885-4.048-2.502l-0.032 3.464v10.159c0 3.098-2.52 5.617-5.617 5.617h-0.504v-10.199c-2.306 0.252-4.106 2.21-4.106 4.582l-0.017 15.077-0.671-0.24c-6.252-2.231-10.452-8.194-10.452-14.838 0-8.684 7.065-15.749 15.75-15.749h0.504v6.089h-0.504c-5.326 0-9.659 4.334-9.659 9.66v11.139c1.181 1.029 2.536 1.877 4.027 2.493l0.016-13.632c0-3.096 2.519-5.616 5.616-5.616h0.504v10.199c2.306-0.251 4.107-2.211 4.107-4.583v-10.164l0.045-4.901 0.665 0.237c6.26 2.229 10.465 8.193 10.465 14.84 0 8.685-7.064 15.751-15.749 15.751z"></path>
<path d="M149.661 23.050h2.82v-14.256h-2.82z"></path>
<path d="M135.283 11.592v-2.815l-1.473 0.025c-3.928 0-7.123 3.195-7.123 7.122v7.143h2.827v-7.143c0-2.37 1.927-4.297 4.296-4.297l1.473-0.035z"></path>
<path d="M105.089 8.761c3.953 0 7.171 3.216 7.171 7.17v7.159h-2.847v-7.159c0-2.384-1.94-4.324-4.324-4.324s-4.323 1.94-4.323 4.324c0 2.384 1.939 4.324 4.323 4.324h0.196v2.846h-0.196c-3.953 0-7.169-3.217-7.169-7.17s3.217-7.17 7.169-7.17z"></path>
<path d="M51.892 23.047h2.82v-14.256h-2.82z"></path>
<path d="M76.334 8.77c3.964 0 7.188 3.225 7.188 7.188v7.132h-2.852v-7.132c0-2.391-1.946-4.337-4.337-4.337s-4.337 1.946-4.337 4.337v7.132h-2.852v-7.132c0-3.963 3.225-7.188 7.189-7.188z"></path>
</svg>
