<!-- Generated by IcoMoon.io -->
<svg version="1.1" xmlns="http://www.w3.org/2000/svg" width="45" height="32" viewBox="0 0 45 32">
<title>comillas</title>
<path d="M7.933 15.588l4.193-0.678c1.964 0 3.721 0.659 5.27 1.977s2.323 3.238 2.323 5.761c0 2.523-0.831 4.65-2.493 6.382s-3.985 2.598-6.97 2.598c-2.984 0-5.44-1.13-7.366-3.389s-2.89-5.177-2.89-8.754c0-3.577 1.379-7.135 4.136-10.674s6.705-6.476 11.843-8.811l0.793 1.92c-7.102 3.916-10.653 7.869-10.653 11.86 0 1.205 0.604 1.807 1.813 1.807zM32.865 15.588l4.193-0.678c1.964 0 3.721 0.659 5.27 1.977s2.323 3.238 2.323 5.761c0 2.523-0.831 4.65-2.493 6.382s-3.985 2.598-6.97 2.598c-2.984 0-5.44-1.13-7.366-3.389s-2.89-5.177-2.89-8.754c0-3.577 1.379-7.135 4.136-10.674s6.705-6.476 11.843-8.811l0.793 1.92c-7.102 3.916-10.653 7.869-10.653 11.86 0 1.205 0.604 1.807 1.813 1.807z"></path>
</svg>
