<!-- Generated by IcoMoon.io -->
<svg version="1.1" xmlns="http://www.w3.org/2000/svg" width="32" height="32" viewBox="0 0 32 32">
<title>twitter</title>
<path d="M28.216 8.37c-0.893 0.401-1.847 0.672-2.853 0.797 1.026-0.625 1.817-1.615 2.186-2.792-0.96 0.578-2.022 1-3.156 1.224-0.908-0.984-2.201-1.599-3.628-1.599-2.745 0-4.967 2.26-4.967 5.047 0 0.396 0.041 0.781 0.128 1.151-4.131-0.208-7.795-2.219-10.243-5.276-0.426 0.745-0.672 1.615-0.672 2.536 0 1.75 0.878 3.297 2.212 4.203-0.816-0.021-1.586-0.25-2.253-0.63 0 0.021 0 0.042 0 0.063 0 2.448 1.714 4.484 3.987 4.948-0.416 0.115-0.857 0.177-1.309 0.177-0.318 0-0.631-0.031-0.934-0.094 0.631 2.005 2.468 3.464 4.644 3.505-1.699 1.354-3.844 2.161-6.173 2.161-0.4 0-0.795-0.026-1.185-0.073 2.196 1.448 4.808 2.281 7.61 2.281 9.144 0 14.143-7.693 14.143-14.365 0-0.219-0.005-0.438-0.015-0.651 0.97-0.714 1.811-1.604 2.479-2.615z"></path>
</svg>
