<!-- Generated by IcoMoon.io -->
<svg version="1.1" xmlns="http://www.w3.org/2000/svg" width="32" height="32" viewBox="0 0 32 32">
<title>instagram</title>
<path d="M16 10c-3.281 0-6 2.672-6 6s2.672 6 6 6c3.328 0 6-2.719 6-6s-2.719-6-6-6zM16 19.844c-2.109 0-3.844-1.734-3.844-3.844s1.734-3.844 3.844-3.844c2.109 0 3.844 1.734 3.844 3.844s-1.734 3.844-3.844 3.844z"></path>
<path d="M23 9c0 1.105-0.895 2-2 2s-2-0.895-2-2c0-1.105 0.895-2 2-2s2 0.895 2 2z"></path>
<path d="M26.065 5.984c-1.258-1.306-3.048-1.984-5.081-1.984h-9.968c-4.21 0-7.016 2.806-7.016 7.016v9.919c0 2.081 0.677 3.871 2.032 5.177 1.306 1.258 3.048 1.887 5.032 1.887h9.871c2.081 0 3.823-0.677 5.081-1.887 1.306-1.258 1.984-3.048 1.984-5.129v-9.968c0-2.032-0.677-3.774-1.935-5.032zM25.871 20.984c0 1.5-0.532 2.71-1.403 3.532s-2.081 1.258-3.532 1.258h-9.871c-1.452 0-2.661-0.435-3.532-1.258-0.871-0.871-1.306-2.081-1.306-3.581v-9.919c0-1.452 0.435-2.661 1.306-3.532 0.823-0.823 2.081-1.258 3.532-1.258h9.968c1.452 0 2.661 0.435 3.532 1.306 0.823 0.871 1.306 2.081 1.306 3.484v9.968z"></path>
</svg>
